<?xml version="1.0" standalone="no"?>
<!DOCTYPE svg PUBLIC "-//W3C//DTD SVG 20010904//EN"
 "http://www.w3.org/TR/2001/REC-SVG-20010904/DTD/svg10.dtd">
<svg version="1.0" xmlns="http://www.w3.org/2000/svg"
 width="1200.000000pt" height="1200.000000pt" viewBox="0 0 1200.000000 1200.000000"
 preserveAspectRatio="xMidYMid meet">
<metadata>
Created by potrace 1.14, written by Peter Selinger 2001-2017
</metadata>
<g transform="translate(0.000000,1200.000000) scale(0.100000,-0.100000)"
fill="#000000" stroke="none">
<path d="M4436 10230 c0 -836 -1 -1520 -2 -1520 -5 0 -95 51 -159 90 -33 20
-80 48 -105 62 -25 14 -153 90 -285 168 -132 79 -253 151 -270 160 -16 9 -93
54 -170 100 -77 46 -212 125 -300 178 -88 52 -173 102 -190 112 -16 10 -93 55
-170 100 -77 46 -185 110 -240 142 -55 33 -107 63 -115 69 -8 5 -107 63 -220
129 -113 66 -212 124 -220 130 -70 44 -170 100 -180 100 -6 0 -57 -84 -158
-260 -11 -19 -51 -89 -89 -155 -39 -66 -123 -212 -188 -325 -65 -113 -144
-249 -177 -303 -32 -55 -58 -100 -58 -102 0 -2 -32 -56 -70 -121 -39 -64 -70
-120 -70 -123 0 -3 -11 -22 -23 -41 -13 -19 -35 -55 -49 -80 -33 -59 -20 -36
-372 -644 -168 -291 -306 -532 -306 -535 0 -4 133 -85 296 -181 163 -96 311
-184 329 -195 44 -27 189 -111 245 -143 25 -14 56 -33 70 -42 20 -14 685 -407
795 -470 305 -175 884 -525 878 -531 -13 -13 -485 -279 -494 -279 -5 0 -9 -4
-9 -9 0 -5 -8 -11 -17 -14 -10 -3 -40 -19 -68 -35 -70 -41 -668 -381 -860
-489 -88 -50 -176 -100 -195 -112 -19 -12 -48 -28 -65 -36 -16 -9 -37 -20 -45
-25 -17 -11 -89 -52 -166 -95 -138 -77 -373 -210 -404 -230 -19 -11 -94 -54
-166 -94 l-131 -73 99 -172 c55 -94 112 -191 126 -216 45 -79 82 -144 104
-180 11 -19 81 -141 155 -270 74 -129 144 -247 154 -262 10 -15 19 -29 19 -32
0 -2 104 -183 231 -402 127 -220 240 -415 251 -434 11 -19 28 -50 38 -68 86
-144 356 -613 368 -634 7 -16 17 -28 21 -28 4 0 187 106 407 236 219 130 410
242 424 250 14 8 39 23 55 33 17 10 71 42 120 71 50 29 104 61 120 71 17 11
38 22 48 25 9 4 17 10 17 15 0 5 4 9 9 9 5 0 94 50 198 111 103 62 274 162
378 224 105 62 206 122 225 132 19 11 91 54 160 95 69 41 193 115 275 163 83
49 159 94 171 102 l21 13 -1 -1555 -1 -1555 1565 0 1565 0 -1 1550 c-1 1136 2
1550 10 1550 7 0 21 -7 33 -15 18 -12 562 -336 648 -385 27 -16 229 -135 765
-453 178 -105 212 -125 283 -166 17 -10 223 -132 456 -270 234 -138 428 -251
431 -251 4 0 137 223 225 379 31 55 73 128 125 216 26 44 59 100 73 125 13 25
64 113 112 195 80 137 191 330 440 760 51 88 141 243 200 345 59 102 116 200
126 217 115 202 243 420 251 430 18 23 1 40 -99 95 -54 31 -195 111 -313 178
-118 68 -334 190 -480 273 -333 188 -294 166 -503 285 -97 56 -182 102 -187
102 -6 0 -10 5 -10 10 0 6 -4 10 -9 10 -6 0 -36 15 -68 34 -32 18 -78 45 -103
59 -232 130 -413 234 -453 258 -26 16 -49 29 -51 29 -2 0 -74 40 -160 90 -86
49 -161 90 -166 90 -27 0 0 22 97 80 60 36 124 73 143 83 19 11 42 25 51 33 8
8 18 14 21 14 7 0 1287 755 1303 768 6 4 17 11 25 15 8 3 36 19 62 34 25 16
240 143 477 283 237 140 431 258 431 262 0 4 -14 31 -31 60 -18 29 -40 67 -50
85 -14 25 -298 516 -405 700 -11 18 -64 110 -118 205 -55 95 -123 213 -153
261 -29 49 -53 90 -53 92 0 3 -17 33 -38 67 -21 35 -41 70 -45 78 -4 8 -17 31
-28 50 -12 19 -98 168 -191 330 -94 162 -188 323 -209 358 -22 35 -39 65 -39
68 0 2 -11 21 -23 42 -13 20 -36 60 -52 87 -123 218 -124 220 -150 196 -6 -5
-30 -20 -55 -33 -51 -29 -1089 -628 -1190 -688 -36 -21 -148 -86 -250 -144
-102 -58 -192 -110 -200 -116 -8 -5 -42 -24 -75 -43 -110 -62 -129 -74 -215
-124 -123 -73 -397 -231 -455 -263 -27 -15 -88 -50 -135 -78 l-85 -50 -3 1524
-2 1524 -1533 0 -1532 0 1 -1520z"/>
</g>
</svg>
